<?xml version="1.0" encoding="UTF-8" standalone="no"?>
<svg
   viewBox="0 0 192 192"
   version="1.1"
   id="svg3"
   sodipodi:docname="AusweisApp2.svg"
   inkscape:version="1.3 (0e150ed6c4, 2023-07-21)"
   xmlns:inkscape="http://www.inkscape.org/namespaces/inkscape"
   xmlns:sodipodi="http://sodipodi.sourceforge.net/DTD/sodipodi-0.dtd"
   xmlns="http://www.w3.org/2000/svg"
   xmlns:svg="http://www.w3.org/2000/svg">
  <sodipodi:namedview
     id="namedview3"
     pagecolor="#ffffff"
     bordercolor="#666666"
     borderopacity="1.0"
     inkscape:showpageshadow="2"
     inkscape:pageopacity="0.0"
     inkscape:pagecheckerboard="0"
     inkscape:deskcolor="#d1d1d1"
     inkscape:zoom="3.0236181"
     inkscape:cx="94.257936"
     inkscape:cy="95.746219"
     inkscape:window-width="1920"
     inkscape:window-height="1017"
     inkscape:window-x="-8"
     inkscape:window-y="164"
     inkscape:window-maximized="1"
     inkscape:current-layer="svg3"
     showgrid="false"
     showguides="true">
    <inkscape:grid
       id="grid1"
       units="px"
       originx="0"
       originy="0"
       spacingx="1"
       spacingy="1"
       empcolor="#0099e5"
       empopacity="0.30196078"
       color="#0099e5"
       opacity="0.14901961"
       empspacing="5"
       dotted="false"
       gridanglex="30"
       gridanglez="30"
       visible="false" />
  </sodipodi:namedview>
  <defs
     id="defs1">
    <style
       id="style1">.a{fill:none;stroke:#b1b5bd;stroke-linecap:round;stroke-linejoin:round;isolation:isolate;opacity:0.63;}</style>
  </defs>
  <g
     id="g1"
     transform="translate(-0.68996239,1.2786274)">
    <rect
       style="fill:#ffffff;fill-opacity:1;fill-rule:evenodd;stroke:#9abeff;stroke-width:0;stroke-linecap:round;stroke-linejoin:round;stroke-dasharray:none;stroke-opacity:1;paint-order:markers fill stroke"
       id="rect20-9-0-5-7"
       width="153"
       height="153"
       x="20.189962"
       y="18.221373"
       rx="10.5"
       ry="10.5" />
    <path
       d="m 91.510862,150.77044 v -20.03803 a 36.459777,36.459777 0 0 1 -1.9333,-0.19082 36.459777,36.459777 0 0 1 -6.8406,-2.07396 36.459777,36.459777 0 0 1 -6.3028,-3.36922 36.459777,36.459777 0 0 1 -5.5261,-4.53342 36.459777,36.459777 0 0 1 -4.5334,-5.52607 36.459777,36.459777 0 0 1 -3.3693,-6.30284 36.459777,36.459777 0 0 1 -2.0739,-6.84061 36.459777,36.459777 0 0 1 -0.7016,-7.112377 36.459777,36.459777 0 0 1 0.7016,-7.11237 36.459777,36.459777 0 0 1 2.0739,-6.84062 36.459777,36.459777 0 0 1 3.3693,-6.30283 36.459777,36.459777 0 0 1 4.5334,-5.52607 36.459777,36.459777 0 0 1 5.5261,-4.53342 36.459777,36.459777 0 0 1 6.3028,-3.369235 36.459777,36.459777 0 0 1 6.8406,-2.07396 36.459777,36.459777 0 0 1 1.9333,-0.190821 V 38.795752 a 56.357497,56.357497 0 0 0 -2.8411,0.204311 56.357497,56.357497 0 0 0 -7.8583,1.707743 56.357497,56.357497 0 0 0 -7.5326,2.810252 56.357497,56.357497 0 0 0 -7.0584,3.854948 56.357497,56.357497 0 0 0 -6.4359,4.818684 56.357497,56.357497 0 0 0 -5.686,5.68605 56.357497,56.357497 0 0 0 -4.8187,6.435843 56.357497,56.357497 0 0 0 -3.855,7.05841 56.357497,56.357497 0 0 0 -2.8102,7.53256 56.357497,56.357497 0 0 0 -1.7077,7.85832 56.357497,56.357497 0 0 0 -0.5744,8.02022 56.357497,56.357497 0 0 0 0.5744,8.020217 56.357497,56.357497 0 0 0 1.7077,7.85831 56.357497,56.357497 0 0 0 2.8102,7.53258 56.357497,56.357497 0 0 0 3.855,7.05841 56.357497,56.357497 0 0 0 4.8187,6.43583 56.357497,56.357497 0 0 0 5.686,5.68605 56.357497,56.357497 0 0 0 6.4359,4.81869 56.357497,56.357497 0 0 0 7.0584,3.85495 56.357497,56.357497 0 0 0 7.5326,2.81025 56.357497,56.357497 0 0 0 7.8583,1.70775 56.357497,56.357497 0 0 0 2.8411,0.20431 z"
       style="fill:#98dc9a;fill-opacity:1;fill-rule:evenodd;stroke:#000000;stroke-width:0"
       id="path13-3-1-7-7" />
    <path
       d="m 101.86776,150.70869 v -20.03803 a 36.459777,36.459777 0 0 0 1.9333,-0.19082 36.459777,36.459777 0 0 0 6.8406,-2.07396 36.459777,36.459777 0 0 0 6.3028,-3.36922 36.459777,36.459777 0 0 0 5.5261,-4.53341 36.459777,36.459777 0 0 0 4.5334,-5.52607 36.459777,36.459777 0 0 0 3.3692,-6.30284 36.459777,36.459777 0 0 0 2.074,-6.84061 36.459777,36.459777 0 0 0 0.7016,-7.112377 36.459777,36.459777 0 0 0 -0.7016,-7.11238 36.459777,36.459777 0 0 0 -2.074,-6.84061 36.459777,36.459777 0 0 0 -3.3692,-6.30283 36.459777,36.459777 0 0 0 -4.5334,-5.52607 36.459777,36.459777 0 0 0 -5.5261,-4.53342 36.459777,36.459777 0 0 0 -6.3028,-3.36924 36.459777,36.459777 0 0 0 -6.8406,-2.07395 36.459777,36.459777 0 0 0 -1.9333,-0.19083 v -20.03801 a 56.357497,56.357497 0 0 1 2.8411,0.20431 56.357497,56.357497 0 0 1 7.8583,1.70774 56.357497,56.357497 0 0 1 7.5326,2.81025 56.357497,56.357497 0 0 1 7.0584,3.85495 56.357497,56.357497 0 0 1 6.4358,4.81869 56.357497,56.357497 0 0 1 5.6861,5.68605 56.357497,56.357497 0 0 1 4.8187,6.43584 56.357497,56.357497 0 0 1 3.8549,7.05841 56.357497,56.357497 0 0 1 2.8103,7.53256 56.357497,56.357497 0 0 1 1.7077,7.85832 56.357497,56.357497 0 0 1 0.5744,8.02022 56.357497,56.357497 0 0 1 -0.5744,8.020217 56.357497,56.357497 0 0 1 -1.7077,7.85831 56.357497,56.357497 0 0 1 -2.8103,7.53258 56.357497,56.357497 0 0 1 -3.8549,7.0584 56.357497,56.357497 0 0 1 -4.8187,6.43583 56.357497,56.357497 0 0 1 -5.6861,5.68605 56.357497,56.357497 0 0 1 -6.4358,4.81869 56.357497,56.357497 0 0 1 -7.0584,3.85495 56.357497,56.357497 0 0 1 -7.5326,2.81025 56.357497,56.357497 0 0 1 -7.8583,1.70775 56.357497,56.357497 0 0 1 -2.8411,0.20431 z"
       style="fill:#9abeff;fill-opacity:1;fill-rule:evenodd;stroke:#000000;stroke-width:0"
       id="path13-3-1-7-9-5" />
  </g>
</svg>
