<?xml version="1.0" encoding="UTF-8" standalone="no"?>
<svg
   viewBox="0 0 192 192"
   version="1.1"
   id="svg3"
   sodipodi:docname="AusweisApp2_alt.svg"
   inkscape:version="1.3 (0e150ed6c4, 2023-07-21)"
   xmlns:inkscape="http://www.inkscape.org/namespaces/inkscape"
   xmlns:sodipodi="http://sodipodi.sourceforge.net/DTD/sodipodi-0.dtd"
   xmlns="http://www.w3.org/2000/svg"
   xmlns:svg="http://www.w3.org/2000/svg">
  <sodipodi:namedview
     id="namedview3"
     pagecolor="#ffffff"
     bordercolor="#666666"
     borderopacity="1.0"
     inkscape:showpageshadow="2"
     inkscape:pageopacity="0.0"
     inkscape:pagecheckerboard="0"
     inkscape:deskcolor="#d1d1d1"
     inkscape:zoom="3.0236181"
     inkscape:cx="94.257937"
     inkscape:cy="95.74622"
     inkscape:window-width="1920"
     inkscape:window-height="1017"
     inkscape:window-x="-8"
     inkscape:window-y="164"
     inkscape:window-maximized="1"
     inkscape:current-layer="svg3" />
  <defs
     id="defs1">
    <style
       id="style1">.a{fill:none;stroke:#b1b5bd;stroke-linecap:round;stroke-linejoin:round;isolation:isolate;opacity:0.63;}</style>
  </defs>
  <g
     id="g3"
     transform="translate(45.5,-4.5)">
    <rect
       style="fill:#9abeff;fill-opacity:1;fill-rule:evenodd;stroke:#ffffff;stroke-width:0;stroke-linecap:round;stroke-linejoin:round;stroke-dasharray:none;stroke-opacity:1;paint-order:markers fill stroke"
       id="rect20-9-0-5-9"
       width="153"
       height="153"
       x="-26"
       y="24"
       rx="10.5"
       ry="10.5" />
    <path
       d="m 45.3215,156.51821 v -20.03803 a 36.459777,36.459777 0 0 1 -1.9332,-0.19082 36.459777,36.459777 0 0 1 -6.8406,-2.07396 36.459777,36.459777 0 0 1 -6.3028,-3.36921 36.459777,36.459777 0 0 1 -5.5261,-4.53342 36.459777,36.459777 0 0 1 -4.5334,-5.52607 36.459777,36.459777 0 0 1 -3.3693,-6.30284 36.459777,36.459777 0 0 1 -2.074,-6.84061 36.459777,36.459777 0 0 1 -0.7016,-7.11238 36.459777,36.459777 0 0 1 0.7016,-7.112385 36.459777,36.459777 0 0 1 2.074,-6.84061 36.459777,36.459777 0 0 1 3.3693,-6.30283 36.459777,36.459777 0 0 1 4.5334,-5.52607 36.459777,36.459777 0 0 1 5.5261,-4.53342 36.459777,36.459777 0 0 1 6.3028,-3.36923 36.459777,36.459777 0 0 1 6.8406,-2.07396 36.459777,36.459777 0 0 1 1.9332,-0.19083 v -20.03801 a 56.357497,56.357497 0 0 0 -2.8411,0.20431 56.357497,56.357497 0 0 0 -7.8583,1.70774 56.357497,56.357497 0 0 0 -7.5326,2.81025 56.357497,56.357497 0 0 0 -7.0584,3.85495 56.357497,56.357497 0 0 0 -6.4359,4.81869 56.357497,56.357497 0 0 0 -5.6859,5.68605 56.357497,56.357497 0 0 0 -4.8188,6.43584 56.357497,56.357497 0 0 0 -3.855,7.05841 56.357497,56.357497 0 0 0 -2.8101,7.53256 56.357497,56.357497 0 0 0 -1.7077,7.85832 56.357497,56.357497 0 0 0 -0.5744,8.020225 56.357497,56.357497 0 0 0 0.5744,8.02022 56.357497,56.357497 0 0 0 1.7077,7.85831 56.357497,56.357497 0 0 0 2.8101,7.53258 56.357497,56.357497 0 0 0 3.855,7.0584 56.357497,56.357497 0 0 0 4.8188,6.43583 56.357497,56.357497 0 0 0 5.6859,5.68605 56.357497,56.357497 0 0 0 6.4359,4.81869 56.357497,56.357497 0 0 0 7.0584,3.85495 56.357497,56.357497 0 0 0 7.5326,2.81025 56.357497,56.357497 0 0 0 7.8583,1.70775 56.357497,56.357497 0 0 0 2.8411,0.20431 z"
       style="fill:#ffffff;fill-opacity:1;fill-rule:evenodd;stroke:#000000;stroke-width:0"
       id="path13-3-1-7-2" />
    <path
       d="m 55.6784,156.45646 v -20.03802 a 36.459777,36.459777 0 0 0 1.9333,-0.19082 36.459777,36.459777 0 0 0 6.8406,-2.07396 36.459777,36.459777 0 0 0 6.3028,-3.36922 36.459777,36.459777 0 0 0 5.5261,-4.53341 36.459777,36.459777 0 0 0 4.5334,-5.52607 36.459777,36.459777 0 0 0 3.3692,-6.30284 36.459777,36.459777 0 0 0 2.0741,-6.84061 36.459777,36.459777 0 0 0 0.7016,-7.11239 36.459777,36.459777 0 0 0 -0.7016,-7.112375 36.459777,36.459777 0 0 0 -2.0741,-6.84061 36.459777,36.459777 0 0 0 -3.3692,-6.30283 36.459777,36.459777 0 0 0 -4.5334,-5.52607 36.459777,36.459777 0 0 0 -5.5261,-4.53342 36.459777,36.459777 0 0 0 -6.3028,-3.36924 36.459777,36.459777 0 0 0 -6.8406,-2.07395 36.459777,36.459777 0 0 0 -1.9333,-0.19083 v -20.03801 a 56.357497,56.357497 0 0 1 2.8412,0.20431 56.357497,56.357497 0 0 1 7.8583,1.70774 56.357497,56.357497 0 0 1 7.5326,2.81025 56.357497,56.357497 0 0 1 7.0584,3.85495 56.357497,56.357497 0 0 1 6.4358,4.81869 56.357497,56.357497 0 0 1 5.686,5.68605 56.357497,56.357497 0 0 1 4.8187,6.43584 56.357497,56.357497 0 0 1 3.855,7.05841 56.357497,56.357497 0 0 1 2.8103,7.53256 56.357497,56.357497 0 0 1 1.7077,7.85832 56.357497,56.357497 0 0 1 0.5744,8.020215 56.357497,56.357497 0 0 1 -0.5744,8.02023 56.357497,56.357497 0 0 1 -1.7077,7.85831 56.357497,56.357497 0 0 1 -2.8103,7.53258 56.357497,56.357497 0 0 1 -3.855,7.0584 56.357497,56.357497 0 0 1 -4.8187,6.43583 56.357497,56.357497 0 0 1 -5.686,5.68604 56.357497,56.357497 0 0 1 -6.4358,4.8187 56.357497,56.357497 0 0 1 -7.0584,3.85495 56.357497,56.357497 0 0 1 -7.5326,2.81024 56.357497,56.357497 0 0 1 -7.8583,1.70776 56.357497,56.357497 0 0 1 -2.8412,0.2043 z"
       style="fill:#ffffff;fill-opacity:1;fill-rule:evenodd;stroke:#000000;stroke-width:0"
       id="path13-3-1-7-9-9" />
  </g>
</svg>
